#!OML:ASF E:\CV Data\Top Level 1\Subject 1\Session 1\player.ASF
:FULLY-SPECIFIED
:DEGREES
1196
root -2.82397 17.1424 3.33466 -0.567421 -2.08334 -8.30478
lowerback 12.257 2.70257 3.27842
upperback 0.336932 4.27914 3.33974
thorax -6.54188 2.04436 0.921921
lowerneck -14.8504 -12.8055 -15.336
upperneck 12.7981 -17.8225 19.3873
head 9.76569 -7.61472 6.51774
rclavicle 5.59082e-016 1.49585e-014
rhumerus 362.565 377.913 648.732
rradius 72.5069
rwrist -17.3436
rhand -25.8497 15.1009
rfingers 7.12502
rthumb 0.690867 -14.8777
lclavicle 5.59082e-016 1.49585e-014
lhumerus -35.9891 18.1124 75.1492
lradius 36.2485
lwrist -2.7119
lhand -15.8146 7.95692
lfingers 7.12502
lthumb 10.379 37.6808
rfemur -6.27581 1.42206 27.0903
rtibia 35.1502
rfoot -24.976 -14.4179
rtoes -4.35314
lfemur -24.3361 -3.91877 2.61645
ltibia 35.5212
lfoot -11.7042 6.43926
ltoes 0.423765
1197
root -2.85771 17.158 3.29007 -0.526643 -2.1741 -8.08775
lowerback 12.1985 2.53711 3.13464
upperback 0.370559 4.03534 3.35909
thorax -6.48492 1.93106 1.06837
lowerneck -15.1305 -12.6582 -15.1917
upperneck 12.8543 -17.6032 19.3236
head 9.77315 -7.49305 6.50633
rclavicle 7.0494e-014 6.55989e-015
rhumerus 360.81 379.066 647.635
rradius 71.7293
rwrist -17.0717
rhand -25.4032 15.0248
rfingers 7.12502
rthumb 1.12213 -14.9519
lclavicle 7.0494e-014 6.55989e-015
lhumerus -35.5995 17.3794 75.9925
lradius 35.628
lwrist -3.5273
lhand -15.1928 7.79715
lfingers 7.12502
lthumb 10.9788 37.4901
rfemur -6.4585 1.72168 27.0179
rtibia 35.1335
rfoot -24.9145 -14.4976
rtoes -3.85808
lfemur -24.3041 -3.64788 2.11126
ltibia 36.2345
lfoot -12.5727 5.02918
ltoes -1.58058
1198
root -2.88888 17.1717 3.24645 -0.475578 -2.25094 -7.92431
lowerback 12.1403 2.37144 3.06612
upperback 0.384694 3.80372 3.39021
thorax -6.44346 1.82109 1.18242
lowerneck -15.3659 -12.5136 -15.0654
upperneck 12.9163 -17.3884 19.2466
head 9.77577 -7.37807 6.4941
rclavicle 4.43414e-014 3.94588e-014
rhumerus 358.964 380.067 646.463
rradius 70.779
rwrist -16.9286
rhand -24.9089 14.8239
rfingers 7.12502
rthumb 1.59951 -15.1498
lclavicle 4.43414e-014 3.94588e-014
lhumerus -35.209 16.6233 76.8193
lradius 35.0081
lwrist -4.52022
lhand -14.48 7.48132
lfingers 7.12502
lthumb 11.6663 37.1365
rfemur -6.64673 2.03104 27
rtibia 35.1189
rfoot -24.8418 -14.616
rtoes -3.38609
lfemur -24.3081 -3.33422 1.63369
ltibia 37.0392
lfoot -13.3974 3.71517
ltoes -3.36347
1199
root -2.91754 17.1836 3.20349 -0.412787 -2.3167 -7.81028
lowerback 12.084 2.20695 3.06583
upperback 0.383681 3.58478 3.43272
thorax -6.41503 1.71506 1.26752
lowerneck -15.5838 -12.3749 -14.9482
upperneck 12.996 -17.1806 19.1462
head 9.78098 -7.26922 6.47442
rclavicle -1.69712e-014 3.37934e-015
rhumerus 357.055 380.9 645.225
rradius 69.6631
rwrist -16.9642
rhand -24.3706 14.47
rfingers 7.12502
rthumb 2.1194 -15.4992
lclavicle -1.69712e-014 3.37934e-015
lhumerus -34.8211 15.8458 77.6315
lradius 34.4169
lwrist -5.66803
lhand -13.7028 6.98403
lfingers 7.12502
lthumb 12.4157 36.5953
rfemur -6.84776 2.33573 27.0304
rtibia 35.1108
rfoot -24.753 -14.7643
rtoes -2.93831
lfemur -24.3458 -2.96131 1.17789
ltibia 37.9246
lfoot -14.1593 2.54249
ltoes -4.96515
1200
root -2.94353 17.1943 3.16187 -0.340608 -2.39409 -7.7263
lowerback 12.0246 2.05104 3.11303
upperback 0.367665 3.3849 3.48379
thorax -6.39836 1.61679 1.33139
lowerneck -15.7735 -12.2398 -14.8468
upperneck 13.095 -16.9759 19.0211
head 9.78725 -7.1659 6.44913
rclavicle -2.22142e-014 -7.95139e-016
rhumerus 355.085 381.554 643.933
rradius 68.3972
rwrist -17.1891
rhand -23.8097 13.9204
rfingers 7.12502
rthumb 2.66113 -16.0428
lclavicle -2.22142e-014 -7.95139e-016
lhumerus -34.4531 15.0607 78.4221
lradius 33.8732
lwrist -6.96503
lhand -12.8669 6.33138
lfingers 7.12502
lthumb 13.2215 35.8921
rfemur -7.06233 2.63064 27.0816
rtibia 35.1135
rfoot -24.6487 -14.918
rtoes -2.51661
lfemur -24.3947 -2.52199 0.721415
ltibia 38.8725
lfoot -14.8496 1.56349
ltoes -6.42887
1201
root -2.96691 17.204 3.12141 -0.262146 -2.48464 -7.65761
lowerback 11.9678 1.90543 3.19137
upperback 0.34432 3.20376 3.5402
thorax -6.38963 1.52665 1.3798
lowerneck -15.966 -12.112 -14.7551
upperneck 13.2198 -16.777 18.8657
head 9.80175 -7.06742 6.41354
rclavicle 1.11568e-014 6.16232e-015
rhumerus 353.085 382.015 642.612
rradius 66.9944
rwrist -17.6082
rhand -23.2293 13.1619
rfingers 7.12502
rthumb 3.22161 -16.7935
lclavicle 1.11568e-014 6.16232e-015
lhumerus -34.098 14.2624 79.1996
lradius 33.4036
lwrist -8.34091
lhand -12.0014 5.57468
lfingers 7.12502
lthumb 14.0556 35.0794
rfemur -7.2913 2.90724 27.1347
rtibia 35.1305
rfoot -24.5313 -15.0627
rtoes -2.13501
lfemur -24.4446 -2.02154 0.250158
ltibia 39.8629
lfoot -15.4665 0.791454
ltoes -7.75582
1202
root -2.98801 17.2132 3.08211 -0.181046 -2.58841 -7.58453
lowerback 11.9067 1.77147 3.27814
upperback 0.322053 3.03895 3.59906
thorax -6.37714 1.44432 1.4232
lowerneck -16.1655 -11.9914 -14.6793
upperneck 13.3638 -16.5814 18.6868
head 9.82399 -6.97248 6.37128
rclavicle 4.09993e-015 -2.62396e-014
rhumerus 351.095 382.276 641.293
rradius 65.4593
rwrist -18.1893
rhand -22.6374 12.1799
rfingers 7.12502
rthumb 3.79322 -17.7661
lclavicle 4.09993e-015 -2.62396e-014
lhumerus -33.7482 13.4658 79.963
lradius 33.0028
lwrist -9.79961
lhand -11.1541 4.79442
lfingers 7.12502
lthumb 14.8721 34.2406
rfemur -7.53228 3.15973 27.1669
rtibia 35.1633
rfoot -24.4068 -15.1836
rtoes -1.79139
lfemur -24.4841 -1.47658 -0.253427
ltibia 40.8736
lfoot -16.0116 0.22895
ltoes -8.93629
1203
root -3.00716 17.2219 3.04409 -0.0991389 -2.71481 -7.4969
lowerback 11.8507 1.65249 3.35641
upperback 0.30205 2.89307 3.66015
thorax -6.36582 1.37152 1.47014
lowerneck -16.3929 -11.8791 -14.6163
upperneck 13.5317 -16.3884 18.4789
head 9.85849 -6.8798 6.31935
rclavicle 8.44835e-015 7.95139e-016
rhumerus 349.14 382.326 640.005
rradius 63.7992
rwrist -18.8544
rhand -22.0217 10.9909
rfingers 7.12502
rthumb 4.38786 -18.9436
lclavicle 8.44835e-015 7.95139e-016
lhumerus -33.4043 12.6754 80.713
lradius 32.6776
lwrist -11.3198
lhand -10.3179 4.04403
lfingers 7.12502
lthumb 15.6775 33.4289
rfemur -7.78296 3.38559 27.1653
rtibia 35.2123
rfoot -24.2815 -15.2619
rtoes -1.48982
lfemur -24.5001 -0.898062 -0.795524
ltibia 41.8855
lfoot -16.4937 -0.132729
ltoes -9.96139
